<?xml version="1.0" encoding="UTF-8"?>
<svg xmlns="http://www.w3.org/2000/svg" xmlns:xlink="http://www.w3.org/1999/xlink" viewBox="0 0 100 100" width="100px" height="100px">
<g id="surface5810619">
<path style=" stroke:none;fill-rule:nonzero;fill:rgb(100%,100%,100%);fill-opacity:1;" d="M 23 13 C 18.589844 13 15 16.589844 15 21 L 15 69 C 15 73.410156 18.589844 77 23 77 L 34 77 L 34 79 C 34 83.410156 37.589844 87 42 87 L 77 87 C 81.410156 87 85 83.410156 85 79 L 85 31 C 85 26.589844 81.410156 23 77 23 L 66 23 L 66 21 C 66 16.589844 62.410156 13 58 13 Z M 23 15 L 58 15 C 61.308594 15 64 17.691406 64 21 L 64 23 L 42 23 C 37.589844 23 34 26.589844 34 31 L 34 71 L 23.5 71 C 22.121094 71 21 69.878906 21 68.5 L 21 21.5 C 21 20.121094 22.121094 19 23.5 19 L 25.5 19 C 25.777344 19 26 18.777344 26 18.5 C 26 18.222656 25.777344 18 25.5 18 L 23.5 18 C 21.570312 18 20 19.570312 20 21.5 L 20 68.5 C 20 70.429688 21.570312 72 23.5 72 L 34 72 L 34 75 L 23 75 C 19.691406 75 17 72.308594 17 69 L 17 21 C 17 17.691406 19.691406 15 23 15 Z M 28.5 18 C 28.222656 18 28 18.222656 28 18.5 C 28 18.777344 28.222656 19 28.5 19 L 52.5 19 C 52.777344 19 53 18.777344 53 18.5 C 53 18.222656 52.777344 18 52.5 18 Z M 42 25 L 77 25 C 80.308594 25 83 27.691406 83 31 L 83 79 C 83 82.308594 80.308594 85 77 85 L 42 85 C 38.691406 85 36 82.308594 36 79 L 36 31 C 36 27.691406 38.691406 25 42 25 Z M 42.5 28 C 40.570312 28 39 29.570312 39 31.5 L 39 78.5 C 39 80.429688 40.570312 82 42.5 82 L 76.5 82 C 78.429688 82 80 80.429688 80 78.5 L 80 71.5 C 80 71.222656 79.777344 71 79.5 71 C 79.222656 71 79 71.222656 79 71.5 L 79 78.5 C 79 79.878906 77.878906 81 76.5 81 L 42.5 81 C 41.121094 81 40 79.878906 40 78.5 L 40 31.5 C 40 30.121094 41.121094 29 42.5 29 L 44.5 29 C 44.777344 29 45 28.777344 45 28.5 C 45 28.222656 44.777344 28 44.5 28 Z M 47.5 28 C 47.222656 28 47 28.222656 47 28.5 C 47 28.777344 47.222656 29 47.5 29 L 71.5 29 C 71.777344 29 72 28.777344 72 28.5 C 72 28.222656 71.777344 28 71.5 28 Z M 60.5 40 C 53.839844 40 49 43.996094 49 49.5 C 49 50.472656 49.351562 51.308594 50.042969 51.980469 C 50.730469 52.65625 51.566406 53 52.539062 53 C 53.480469 53 54.304688 52.65625 54.980469 51.980469 C 55.65625 51.304688 56 50.46875 56 49.496094 C 56 48.554688 55.660156 47.730469 54.984375 47.042969 C 54.746094 46.800781 54.476562 46.601562 54.171875 46.445312 C 56.25 45 58.652344 45 59.5 45 C 62.144531 45 65 46.722656 65 49.5 C 65 51.019531 63.777344 52.292969 62.363281 53.765625 C 60.417969 55.792969 58 58.3125 58 62.5 C 58 62.777344 58.222656 63 58.5 63 L 63.5 63 C 63.777344 63 64 62.777344 64 62.5 C 64 60.914062 65.574219 59.359375 67.097656 57.855469 L 67.1875 57.765625 C 67.492188 57.464844 67.796875 57.160156 68.105469 56.851562 C 68.296875 56.65625 68.296875 56.339844 68.101562 56.144531 C 67.902344 55.949219 67.585938 55.953125 67.394531 56.148438 C 67.089844 56.457031 66.785156 56.753906 66.484375 57.054688 L 66.394531 57.144531 C 64.867188 58.652344 63.289062 60.207031 63.035156 62 L 59.015625 62 C 59.195312 58.511719 61.257812 56.363281 63.089844 54.457031 C 64.585938 52.894531 66 51.421875 66 49.5 C 66 46.101562 62.625 44 59.5 44 C 58.464844 44 55.308594 44 52.8125 46.25 C 52.671875 46.375 52.617188 46.566406 52.664062 46.75 C 52.714844 46.933594 52.859375 47.070312 53.046875 47.109375 C 53.566406 47.21875 53.957031 47.421875 54.269531 47.742188 C 54.761719 48.242188 55 48.816406 55 49.5 C 55 50.203125 54.761719 50.785156 54.273438 51.273438 C 53.785156 51.761719 53.214844 52 52.539062 52 C 51.832031 52 51.242188 51.761719 50.742188 51.269531 C 50.242188 50.78125 50 50.199219 50 49.5 C 50 44.574219 54.417969 41 60.5 41 C 66.289062 41 71 44.8125 71 49.5 C 71 50.289062 70.855469 51.046875 70.554688 51.820312 C 70.453125 52.074219 70.578125 52.367188 70.839844 52.46875 C 71.09375 52.566406 71.382812 52.4375 71.484375 52.183594 C 71.828125 51.304688 72 50.402344 72 49.5 C 72 44.261719 66.839844 40 60.5 40 Z M 69.910156 53.386719 C 69.785156 53.40625 69.667969 53.480469 69.589844 53.59375 C 69.449219 53.796875 69.300781 53.996094 69.148438 54.195312 C 68.976562 54.410156 69.019531 54.722656 69.234375 54.894531 C 69.328125 54.964844 69.4375 55 69.542969 55 C 69.691406 55 69.839844 54.933594 69.9375 54.808594 C 70.101562 54.597656 70.261719 54.382812 70.410156 54.164062 C 70.570312 53.933594 70.511719 53.621094 70.285156 53.46875 C 70.171875 53.386719 70.035156 53.363281 69.910156 53.386719 Z M 79.5 60 C 79.222656 60 79 60.222656 79 60.5 L 79 61.5 C 79 61.777344 79.222656 62 79.5 62 C 79.777344 62 80 61.777344 80 61.5 L 80 60.5 C 80 60.222656 79.777344 60 79.5 60 Z M 79.5 64 C 79.222656 64 79 64.222656 79 64.5 L 79 68.5 C 79 68.777344 79.222656 69 79.5 69 C 79.777344 69 80 68.777344 80 68.5 L 80 64.5 C 80 64.222656 79.777344 64 79.5 64 Z M 61.03125 66 C 60.199219 66 59.480469 66.300781 58.890625 66.890625 C 58.300781 67.480469 58 68.191406 58 69 C 58 69.832031 58.300781 70.550781 58.894531 71.128906 C 59.480469 71.707031 60.203125 72 61.03125 72 C 61.839844 72 62.546875 71.707031 63.128906 71.125 C 63.707031 70.546875 64 69.832031 64 69 C 64 68.191406 63.707031 67.480469 63.132812 66.894531 C 62.550781 66.300781 61.84375 66 61.03125 66 Z M 61.035156 67 C 61.574219 67 62.027344 67.195312 62.417969 67.59375 C 62.808594 67.992188 63 68.453125 63 69 C 63 69.5625 62.8125 70.027344 62.421875 70.417969 C 62.027344 70.808594 61.570312 71 61.03125 71 C 60.464844 71 59.996094 70.808594 59.59375 70.414062 C 59.195312 70.023438 59 69.5625 59 69 C 59 68.457031 59.195312 68 59.601562 67.597656 C 60 67.195312 60.46875 67 61.035156 67 Z M 61.035156 67 "/>
</g>
</svg>
