<?xml version="1.0" encoding="UTF-8"?>
<svg xmlns="http://www.w3.org/2000/svg" xmlns:xlink="http://www.w3.org/1999/xlink" viewBox="0 0 48 48" width="48px" height="48px">
<g id="surface9687328">
<path style=" stroke:none;fill-rule:nonzero;fill:rgb(100%,100%,100%);fill-opacity:1;" d="M 8.414062 5.585938 L 5.585938 8.414062 L 10.152344 12.980469 C 4.398438 17.675781 2 24 2 24 C 2 24 8 40 24 40 C 28.152344 40 31.613281 38.910156 34.484375 37.3125 L 39.585938 42.414062 L 42.414062 39.585938 Z M 24 8 C 21.574219 8 19.410156 8.398438 17.433594 9.023438 L 22.554688 14.144531 C 23.027344 14.074219 23.507812 14 24 14 C 29.523438 14 34 18.476562 34 24 C 34 24.492188 33.925781 24.972656 33.855469 25.445312 L 40.714844 32.304688 C 44.410156 28.203125 46 24 46 24 C 46 24 40 8 24 8 Z M 15.667969 18.496094 L 18.59375 21.421875 C 18.214844 22.203125 18 23.074219 18 24 C 18 27.3125 20.6875 30 24 30 C 24.925781 30 25.796875 29.785156 26.578125 29.40625 L 29.503906 32.332031 C 27.925781 33.378906 26.039062 34 24 34 C 18.476562 34 14 29.523438 14 24 C 14 21.960938 14.621094 20.074219 15.667969 18.496094 Z M 15.667969 18.496094 "/>
</g>
</svg>
