<?xml version="1.0" encoding="UTF-8"?>
<svg xmlns="http://www.w3.org/2000/svg" xmlns:xlink="http://www.w3.org/1999/xlink" viewBox="0 0 52 52" width="52px" height="52px">
<g id="surface9686913">
<path style=" stroke:none;fill-rule:nonzero;fill:rgb(100%,100%,100%);fill-opacity:1;" d="M 6 0 C 2.6875 0 0 2.6875 0 6 L 0 42 C 0 45.3125 2.6875 48 6 48 L 22.875 48 C 21.75 46.617188 20.90625 45.234375 20.4375 44 L 6 44 C 4.898438 44 4 43.101562 4 42 L 4 8 L 44 8 L 44 29.25 C 45.414062 29.8125 46.757812 30.539062 48 31.375 L 48 6 C 48 2.6875 45.3125 0 42 0 Z M 10 16 L 10 20 L 14 20 L 14 16 Z M 18 16 L 18 20 L 38 20 L 38 16 Z M 10 24 L 10 28 L 14 28 L 14 24 Z M 18 24 L 18 28 L 38 28 L 38 24 Z M 10 32 L 10 36 L 14 36 L 14 32 Z M 18 32 L 18 36 L 22.875 36 C 24.015625 34.601562 25.421875 33.21875 27.0625 32 Z M 38 32.0625 C 30.265625 32.0625 24 40.171875 24 42 C 24 43.828125 30.265625 51.9375 38 51.9375 C 45.734375 51.9375 52 43.710938 52 42 C 52 40.289062 45.734375 32.0625 38 32.0625 Z M 38 36.0625 L 38 40 C 38 41.101562 38.890625 42 40 42 L 44 42 C 44 45.289062 41.3125 47.9375 38 47.9375 C 34.6875 47.9375 32 45.289062 32 42 C 32 38.710938 34.6875 36.0625 38 36.0625 Z M 38 36.0625 "/>
</g>
</svg>
